# xmcd
#
# Track frame offsets:
#	150
#	12672
#	28314
#	42592
#	57308
#	74721
#	90942
#	105103
#	120008
#	134239
#	150580
#	169749
#	182847
#	199195
#	216421
#	233794
#	252791
#	265413
#	281445
#	298654
#
# Disc length: 4208 seconds
#
# Revision: 0
# Processed by: cddbd v1.4PL0 Copyright (c) Steve Scherf et al.
# Submitted via: audiograbber 1.81.02
#
DISCID=2c106e14
DTITLE=Curtis Mayfield - Move On Up (The Singles Anthology 1970-90) CD #1
DYEAR=1999
DGENRE=Funk
TTITLE0=Move On Up
TTITLE1=(Don't Worry) If There Is A Hell Below We're All Gonna Go
TTITLE2=Beautyful Brother Of Mine
TTITLE3=Mighty, Mighty Spade Whitey
TTITLE4=Get Down
TTITLE5=We Got To Have Peace
TTITLE6=Keep On Keeping On
TTITLE7=Freddy's Dead
TTITLE8=Superfly
TTITLE9=Future Shock
TTITLE10=Back To The World
TTITLE11=If I Were Only A Child
TTITLE12=Can't Say Nothin'
TTITLE13=Kung Fu
TTITLE14=Sweet Exorcist
TTITLE15=Mother's Son
TTITLE16=So In Love
TTITLE17=Only You Babe
TTITLE18=Party Night
TTITLE19=Show Me Love
EXTD=
EXTT0=
EXTT1=
EXTT2=
EXTT3=
EXTT4=
EXTT5=
EXTT6=
EXTT7=
EXTT8=
EXTT9=
EXTT10=
EXTT11=
EXTT12=
EXTT13=
EXTT14=
EXTT15=
EXTT16=
EXTT17=
EXTT18=
EXTT19=
PLAYORDER=
